<svg id="svg" viewBox="0 0 1300 500" xmlns="http://www.w3.org/2000/svg">
  <path d="M 0,100 Q 500,-120,1190,200M 0 100 L 0 300M 0,300 Q 500,520,1190,200M 100,60 l 0,280M 400,15 l 0 370M 100,200 l 200,0M 750 45 L 750 140 M 750 220 L 750 355M 1080 150 L 1080 250" fill="none" stroke="#000000" style=""></path>
  <rect x="300" y="140" width="100" height="120" fill="#808080" stroke="#000000" style=""></rect>
  <path d="M 550,60 l 200,0 l 0,60 l -200,0 Z" fill="#0000ff" stroke="none" style=""></path>
  <path d="M 550,345 l 200,0 l 0,-120 l -60,0 l 0,60 l -140,0 Z" fill="#0000ff" stroke="none" style=""></path>
  <path d="M 105,65 q 180,-60,190,0 l 0,120 l -190,0 Z" fill="#0000ff" stroke="none" style=""></path>
  <path d="M 105,335 q 180,60,190,0 l 0,-120 l -190,0 Z" fill="#0000ff" stroke="none" style=""></path>
  <g transform="matrix(1,0,0,1,435,280)">
    <rect x="0" y="40" width="50" height="60" fill="#0000ff" stroke="none" style=""></rect>
    <rect x="52" y="0" width="60" height="100" fill="#a52a2a" stroke="#000000" style=""></rect>
  </g>
</svg>
